<svg width="36" height="36" viewBox="0 0 36 36" fill="none" xmlns="http://www.w3.org/2000/svg">
<circle cx="18" cy="18" r="18" fill="#C30000"/>
 <g transform="scale(1.5)">
<path fill-rule="evenodd" clip-rule="evenodd" d="M14.6122 3.04065L13.9999 3.4999L13.7887 3.39432C12.6626 2.83127 11.3371 2.83127 10.211 3.39432L9.99989 3.4999L9.28336 2.9625C8.53345 2.40007 7.49351 2.43394 6.78178 3.04399L6.60672 3.19405C5.57024 4.08245 5.70873 5.7252 6.87931 6.42755L6.99989 6.4999V7.26383C6.99989 9.10495 7.96555 10.7994 9.52313 11.7424C9.31885 11.8773 9.12623 12.0284 8.94709 12.194C8.85842 12.2759 8.72484 12.2892 8.61958 12.2301C8.57384 12.2044 8.52754 12.1796 8.48133 12.1548L8.4813 12.1548C8.44111 12.1332 8.40098 12.1117 8.36133 12.0897L6.73165 11.1843C6.04478 10.8027 5.17905 11.0345 4.77478 11.7083C4.35101 12.4146 4.59653 13.3315 5.31654 13.7315L7.26796 14.8156C7.35475 14.8638 7.4444 14.9022 7.5356 14.9312C7.52138 15.044 7.51133 15.1581 7.50561 15.2733C7.50214 15.3433 7.50028 15.4139 7.50004 15.4845C7.49973 15.5741 7.55119 15.6545 7.62709 15.7022C7.75959 15.7854 7.8849 15.8847 8.00023 16L9.00023 17C9.55525 17.555 9.73842 18.3411 9.54974 19.0486C9.52004 19.16 9.55732 19.2817 9.65567 19.3419C10.3384 19.7594 11.1411 20 12 20C12.8591 20 13.6619 19.7593 14.3447 19.3416C14.4431 19.2815 14.4803 19.1598 14.4507 19.0484C14.2621 18.3409 14.4453 17.555 15.0002 17L16.0002 16C16.1154 15.8848 16.2406 15.7856 16.373 15.7024C16.4488 15.6547 16.5003 15.5744 16.5 15.4848C16.4997 15.4128 16.4978 15.3407 16.4942 15.2694C16.4884 15.1555 16.4785 15.0426 16.4644 14.9311C16.5555 14.9021 16.645 14.8637 16.7316 14.8156L18.6831 13.7315C19.4031 13.3315 19.6486 12.4146 19.2248 11.7083C18.8205 11.0345 17.9548 10.8027 17.268 11.1843L15.5378 12.1455C15.5103 12.1608 15.4825 12.1758 15.4547 12.1909C15.4301 12.2042 15.4054 12.2176 15.3809 12.2311C15.2752 12.2895 15.1414 12.2757 15.0528 12.1938C14.8736 12.0283 14.681 11.8772 14.4768 11.7423C16.0343 10.7993 16.9999 9.10491 16.9999 7.26383V6.4999L17.1551 6.38351C18.1288 5.65325 18.2299 4.22991 17.3693 3.36929L17.2264 3.22644C16.5226 2.52265 15.4085 2.44347 14.6122 3.04065ZM12 8.94096C11.7055 8.67711 11.2527 8.68668 10.9697 8.96967C10.6768 9.26256 10.6768 9.73744 10.9697 10.0303L11.4697 10.5303C11.7626 10.8232 12.2374 10.8232 12.5303 10.5303L13.0303 10.0303C13.3232 9.73744 13.3232 9.26256 13.0303 8.96967C12.7473 8.68668 12.2945 8.67711 12 8.94096ZM10.5 6.75C10.0858 6.75 9.75 7.08579 9.75 7.5C9.75 7.91421 10.0858 8.25 10.5 8.25H10.51C10.9242 8.25 11.26 7.91421 11.26 7.5C11.26 7.08579 10.9242 6.75 10.51 6.75H10.5ZM12.75 7.5C12.75 7.08579 13.0858 6.75 13.5 6.75H13.51C13.9242 6.75 14.26 7.08579 14.26 7.5C14.26 7.91421 13.9242 8.25 13.51 8.25H13.5C13.0858 8.25 12.75 7.91421 12.75 7.5ZM5.53056 16.5303C4.99502 17.0658 4.99502 17.9341 5.53056 18.4697L6.53056 19.4697C7.06609 20.0052 7.93436 20.0052 8.4699 19.4697C9.00543 18.9341 9.00543 18.0658 8.4699 17.5303L7.4699 16.5303C6.93436 15.9948 6.06609 15.9948 5.53056 16.5303ZM18.4699 16.5303C17.9344 15.9948 17.0661 15.9948 16.5306 16.5303L15.5306 17.5303C14.995 18.0658 14.995 18.9341 15.5306 19.4697C16.0661 20.0052 16.9344 20.0052 17.4699 19.4697L18.4699 18.4697C19.0054 17.9341 19.0054 17.0658 18.4699 16.5303Z" fill="#FFFFFF"/>
</g>
  <g transform="scale(0.45) translate(28 37)">
<path fill-rule="evenodd" clip-rule="evenodd" d="M11.25 3.12452C11.25 2.90391 11.1529 2.6945 10.9845 2.55199C10.8161 2.40949 10.5935 2.34835 10.3759 2.38485C5.76406 3.15858 2.25 7.16822 2.25 12.0001C2.25 14.1049 2.91781 16.0559 4.05302 17.65C4.18102 17.8298 4.38166 17.944 4.60155 17.9624C4.82144 17.9807 5.03825 17.9013 5.19427 17.7453L8.84691 14.0927C9.06312 13.8765 9.12643 13.5506 9.00691 13.2692C8.84174 12.8803 8.75 12.4518 8.75 12.0001C8.75 10.6373 9.58897 9.46873 10.7814 8.98604C11.0646 8.87139 11.25 8.59639 11.25 8.29084V3.12452ZM13.0155 2.55199C13.1839 2.40949 13.4065 2.34835 13.6241 2.38485C17.7083 3.07005 20.93 6.29172 21.6152 10.3759C21.6517 10.5935 21.5906 10.8161 21.4481 10.9845C21.3056 11.1529 21.0962 11.25 20.8755 11.25H15.7092C15.4037 11.25 15.1287 11.0647 15.014 10.7814C14.6843 9.96703 14.033 9.31571 13.2186 8.98604C12.9354 8.87139 12.75 8.59639 12.75 8.29084V3.12452C12.75 2.90391 12.8471 2.6945 13.0155 2.55199ZM15.0139 13.2186C15.1286 12.9354 15.4036 12.75 15.7091 12.75H20.8754C21.0961 12.75 21.3055 12.8471 21.448 13.0155C21.5905 13.1839 21.6516 13.4065 21.6151 13.6241C20.8414 18.236 16.8318 21.7501 11.9999 21.7501C9.89515 21.7501 7.94416 21.0823 6.35011 19.9472C6.17038 19.8192 6.05612 19.6185 6.03776 19.3987C6.0194 19.1788 6.0988 18.962 6.25483 18.8059L9.9075 15.1533C10.1237 14.9371 10.4495 14.8737 10.7309 14.9932C11.1198 15.1584 11.5482 15.2501 11.9999 15.2501C13.3626 15.2501 14.5313 14.4111 15.0139 13.2186Z" fill="#C30000"/>
</g>
</svg>
